<xml version="1.0" encoding="utf-8">
<!-- Generator: Adobe Illustrator 21.0.0, SVG Export Plug-In . SVG Version: 6.00 Build 0)  -->
<svg version="1.1" id="Layer_1" xmlns="http://www.w3.org/2000/svg" xmlns:xlink="http://www.w3.org/1999/xlink" x="0px" y="0px"
	 viewBox="0 0 346 357" style="enable-background:new 0 0 346 357;" xml:space="preserve">
<style type="text/css">
	.st0{fill:#868793;stroke:#000000;stroke-width:7;stroke-miterlimit:10;}
	.st1{fill:#2D2A2A;stroke:#000000;stroke-width:5;stroke-miterlimit:10;}
	.st2{fill:#A3A4AF;stroke:#000000;stroke-width:5;stroke-miterlimit:10;}
	.st3{fill:#34E249;}
    .st4{font-family:'ArialMT';}
	.st5{font-size:17px;}
	.st6{fill:#232323;stroke:#000000;stroke-miterlimit:10;}
	.st7{font-size:29px;}
</style>
<title>drum-machine</title>
<rect x="3.5" y="3.5" class="st0" width="339" height="339"/>
<rect id="DRUM_MACHINE_BACKGROUND" x="15.4" y="15.2" class="st1" width="145.1" height="48"/>
<image style="overflow:visible;opacity:0.75;enable-background:new    ;" width="313" height="334" id="SHADOW" xlink:href="28904855.png"  transform="matrix(1 0 0 1 12 23)">
</image>
<g>
	<rect x="45.6" y="74.6" class="st2" width="254.3" height="257.3"/>
	<text transform="matrix(1 0 0 1 20.1141 45.2637)" class="st3 st4 st5">DRUM MACHINE</text>
</g>
<g id="
       3_F">
	<rect x="217.3" y="247.9" class="st6" width="75" height="76.7"/>
	<text transform="matrix(1 0 0 1 234.2974 293.9951)" class="st3 st4 st7">3/F</text>
</g>
<g id="2_D">
	<rect x="136.3" y="247.9" class="st6" width="75" height="76.7"/>
	<text transform="matrix(1 0 0 1 152.77 293.9951)" class="st3 st4 st7">2/D</text>
</g>
<g id="1_S">
	<rect x="54.3" y="247.9" class="st6" width="75" height="76.7"/>
	<text transform="matrix(1 0 0 1 69.252 293.9951)" class="st3 st4 st7">1/S</text>
</g>
<g id="6_A">
	<rect x="217.3" y="164.9" class="st6" width="75" height="76.7"/>
	<text transform="matrix(1 0 0 1 233.77 211.9951)" class="st3 st4 st7">6/A</text>
</g>
<g id="5_T">
	<rect x="134.3" y="164.9" class="st6" width="75" height="76.7"/>
	<text transform="matrix(1 0 0 1 150.7832 211.9951)" class="st3 st4 st7">5/T</text>
</g>
<g id="4_R">
	<rect x="54.3" y="164.9" class="st6" width="75" height="76.7"/>
	<text transform="matrix(1 0 0 1 70.77 212.9951)" class="st3 st4 st7">4/R</text>
</g>
<g id="9_E">
	<rect x="217.3" y="81.9" class="st6" width="75" height="76.7"/>
	<text transform="matrix(1 0 0 1 234.2974 129.9951)" class="st3 st4 st7">9/E</text>
</g>
<g id="8_W">
	<rect x="136.3" y="81.9" class="st6" width="75" height="76.7"/>
	<text transform="matrix(1 0 0 1 146.77 129.9951)" class="st3 st4 st7">8/W</text>
</g>
<g id="7_Q">
	<rect x="54.1" y="81.9" class="st6" width="75" height="76.7"/>
	<text transform="matrix(1 0 0 1 70.8565 129.9951)" class="st3 st4 st7">7/Q</text>
</g>
</svg>
